{"title":"Jinn.2014.BRRiP.XViD.AC3.5.1.ReLeNTLesS","uid":11231623,"size":1277424008,"categoryP":"video","categoryS":"movies","magnet":"?xt=urn:btih:b7a0fff42e13a75e1c7a3526127bce8981266ded&amp;dn=Jinn.2014.BRRiP.XViD.AC3.5.1.ReLeNTLesS&amp;tr=udp%3A%2F%2Ftracker.openbittorrent.com%3A80&amp;tr=udp%3A%2F%2Fopen.demonii.com%3A1337&amp;tr=udp%3A%2F%2Ftracker.coppersurfer.tk%3A6969&amp;tr=udp%3A%2F%2Fexodus.desync.com%3A6969","seeders":1,"leechers":0,"uploader":"TvTeam","files":4,"time":1413544082,"description":" &lt;a href=&quot;http://www.torrenting.com&quot; rel=&quot;nofollow&quot; target=&quot;_NEW&quot;&gt;http://www.torrenting.com&lt;/a&gt;\n\nSign up is OPEN - for time being. Come and have fun.\n\n\n....P0STER\n[img]http://s11.postimg.org/vbov60efn/k_DYSQ0_K.jpg[/img]\n\niMDB: http://www.imdb.com/title/tt1562899/\n\nGeneral\nComplete name                            : Jinn.2014.BRRiP.XViD.AC3.5.1.ReLeNTLesS.avi\nFormat                                   : AVI\nFormat/Info                              : Audio Video Interleave\nFile size                                : 1.18 GiB\nDuration                                 : 1h 37mn\nOverall bit rate                         : 1 736 Kbps\n\nVideo\nID                                       : 0\nFormat                                   : MPEG-4 Visual\nFormat profile                           : Advanced Simple@L5\nFormat settings, BVOP                    : 2\nFormat settings, QPel                    : No\nFormat settings, GMC                     : No warppoints\nFormat settings, Matrix                  : Default (H.263)\nCodec ID                                 : XVID\nCodec ID/Hint                            : XviD\nDuration                                 : 1h 37mn\nBit rate                                 : 1 408 Kbps\nWidth                                    : 720 pixels\nHeight                                   : 304 pixels\nDisplay aspect ratio                     : 2.35:1\nFrame rate                               : 24.000 fps\nColor space                              : YUV\nChroma subsampling                       : 4:2:0\nBit depth                                : 8 bits\nScan type                                : Progressive\nCompression mode                         : Lossy\nBits/(Pixel*Frame)                       : 0.268\nStream size                              : 979 MiB (81%)\nWriting library                          : XviD 1.2.1 (UTC 2008-12-04)\n\nAudio\nID                                       : 1\nFormat                                   : AC-3\nFormat/Info                              : Audio Coding 3\nMode extension                           : CM (complete main)\nFormat settings, Endianness              : Big\nCodec ID                                 : 2000\nDuration                                 : 1h 37mn\nBit rate mode                            : Constant\nBit rate                                 : 320 Kbps\nChannel(s)                               : 6 channels\nChannel positions                        : Front: L C R, Side: L R, LFE\nSampling rate                            : 44.1 KHz\nBit depth                                : 16 bits\nCompression mode                         : Lossy\nStream size                              : 222 MiB (18%)\nAlignment                                : Aligned on interleaves\nInterleave, duration                     : 70 ms (1.67 video frames)\nInterleave, preload duration             : 208 ms\nTitle                                    : Jinn.2014.ReLeNTLesS.audio.English.5.1\nSource                                   : RBG Thanks\n\nPL0T\nShawn, an automotive designer, enjoys an idyllic life with his new wife Jasmine until it is interrupted by a cryptic message. The message warns of imminent danger and a curse that has\n\nCAST\nDirector: Ajmal Zaheer Ahmad\nWriter: Ajmal Zaheer Ahmad\nStars: Ray Park, Serinda Swan, William Atherton\n\nN0TES\nThere where a lot of dark scenes so brightend it up a bit and sharpend tweeked colors etc enjoy. \n\nSCREENS\n[IMG]http://lookpic.com/O/i2/1494/zxqzblKr.png[/IMG]\n[IMG]http://lookpic.com/O/i2/1890/NfcvRj1.png[/IMG]\n[IMG]http://lookpic.com/O/i2/886/plXGgyww.png[/IMG]\n[IMG]http://lookpic.com/O/i2/1183/PPOECegi.png[/IMG]\n[IMG]http://lookpic.com/O/i2/812/MBXCTyAA.png[/IMG]\n[IMG]http://lookpic.com/O/i2/166/HbEDPJGO.png[/IMG]\n\nTRAiLER\n\nGREETZ\n\nM0RPH, M00SE, MiLLENiUM, Anonymous, TuX, \n\nACAB, KingStoner, FooKas, 4PlayHD, \n\nGodFather, Cld.... \n\nKeep up the good work guyz","torrent":{"xt":"urn:btih:b7a0fff42e13a75e1c7a3526127bce8981266ded","amp;dn":"Jinn.2014.BRRiP.XViD.AC3.5.1.ReLeNTLesS","amp;tr":["udp%3A%2F%2Ftracker.openbittorrent.com%3A80","udp%3A%2F%2Fopen.demonii.com%3A1337","udp%3A%2F%2Ftracker.coppersurfer.tk%3A6969","udp%3A%2F%2Fexodus.desync.com%3A6969"],"infoHash":"b7a0fff42e13a75e1c7a3526127bce8981266ded","infoHashBuffer":{"type":"Buffer","data":[183,160,255,244,46,19,167,94,28,122,53,38,18,123,206,137,129,38,109,237]},"announce":[],"urlList":[]}}